<?xml version="1.0" encoding="utf-8"?>
<!-- Generator: Adobe Illustrator 23.0.1, SVG Export Plug-In . SVG Version: 6.00 Build 0)  -->
<svg version="1.1" id="圖層_1" xmlns="http://www.w3.org/2000/svg" xmlns:xlink="http://www.w3.org/1999/xlink" x="0px" y="0px"
	 viewBox="0 0 480 320" style="enable-background:new 0 0 480 320;" xml:space="preserve">
<style type="text/css">
	.st0{fill:none;stroke:#000000;stroke-miterlimit:10;}
	.st1{fill:none;stroke:#000000;stroke-width:6;stroke-miterlimit:10;}
	.st2{fill:none;stroke:#000000;stroke-width:0.5;stroke-miterlimit:10;}
	.st3{fill:#6A3906;}
	.st4{fill:none;stroke:#FFFFFF;stroke-width:2;stroke-miterlimit:10;}
	.st5{fill:none;stroke:#FFFFFF;stroke-miterlimit:10;}
	.st6{fill:#FFFFFF;}
</style>
<g>
	<g>
		<path d="M336.07,160c0,2.91-4.78,5.59-5.04,8.43c-0.27,2.9,3.95,6.39,3.42,9.21c-0.53,2.86-5.72,4.6-6.5,7.36
			c-0.79,2.79,2.7,7,1.66,9.68c-1.05,2.7-6.47,3.46-7.76,6.03c-1.29,2.59,1.36,7.38-0.16,9.82c-1.53,2.46-7,2.21-8.74,4.5
			c-1.74,2.3-0.01,7.49-1.96,9.63c-1.95,2.13-7.28,0.88-9.41,2.83c-2.13,1.94-1.38,7.36-3.68,9.1c-2.3,1.74-7.32-0.46-9.77,1.06
			c-2.45,1.52-2.7,6.98-5.29,8.27c-2.57,1.28-7.1-1.8-9.8-0.75c-2.68,1.04-3.94,6.36-6.73,7.16c-2.76,0.78-6.64-3.08-9.49-2.55
			c-2.82,0.52-5.04,5.52-7.94,5.79c-2.85,0.26-5.95-4.25-8.86-4.25c-2.92,0-6.02,4.51-8.86,4.25c-2.9-0.26-5.12-5.27-7.94-5.79
			c-2.86-0.53-6.73,3.34-9.49,2.55c-2.79-0.79-4.05-6.12-6.73-7.16c-2.7-1.05-7.23,2.04-9.8,0.75c-2.59-1.29-2.84-6.76-5.29-8.27
			c-2.46-1.52-7.47,0.67-9.77-1.06c-2.3-1.74-1.55-7.16-3.68-9.1c-2.13-1.94-7.47-0.7-9.41-2.83c-1.95-2.13-0.21-7.32-1.96-9.63
			c-1.74-2.3-7.21-2.05-8.74-4.5c-1.52-2.45,1.14-7.23-0.16-9.82c-1.28-2.57-6.71-3.33-7.76-6.03c-1.04-2.68,2.45-6.89,1.66-9.68
			c-0.78-2.76-5.97-4.51-6.51-7.36c-0.52-2.81,3.69-6.31,3.42-9.21c-0.26-2.85-5.04-5.52-5.04-8.43c0-2.91,4.78-5.59,5.04-8.43
			c0.27-2.9-3.95-6.39-3.42-9.21c0.53-2.86,5.72-4.6,6.51-7.36c0.79-2.79-2.7-7-1.66-9.68c1.05-2.7,6.47-3.46,7.76-6.03
			c1.29-2.59-1.36-7.38,0.16-9.82c1.53-2.46,7-2.21,8.74-4.5c1.74-2.3,0.01-7.5,1.96-9.62c1.95-2.13,7.28-0.89,9.41-2.83
			c2.13-1.94,1.38-7.36,3.68-9.11c2.3-1.74,7.32,0.46,9.77-1.06c2.45-1.52,2.7-6.99,5.29-8.28c2.57-1.28,7.1,1.8,9.8,0.75
			c2.68-1.04,3.94-6.36,6.73-7.16c2.76-0.78,6.64,3.08,9.49,2.55c2.82-0.52,5.04-5.53,7.94-5.79c2.85-0.26,5.95,4.25,8.86,4.25
			c2.92,0,6.02-4.51,8.86-4.25c2.9,0.26,5.12,5.27,7.94,5.79c2.86,0.53,6.73-3.33,9.49-2.55c2.79,0.79,4.05,6.12,6.73,7.16
			c2.7,1.05,7.22-2.04,9.8-0.75c2.59,1.29,2.84,6.76,5.29,8.28c2.46,1.52,7.47-0.68,9.77,1.06c2.31,1.74,1.55,7.16,3.68,9.11
			c2.14,1.94,7.47,0.7,9.41,2.83c1.95,2.13,0.21,7.32,1.96,9.62c1.74,2.3,7.21,2.05,8.73,4.5c1.52,2.45-1.13,7.23,0.16,9.82
			c1.28,2.57,6.71,3.33,7.76,6.03c1.04,2.68-2.45,6.89-1.66,9.68c0.78,2.76,5.97,4.51,6.5,7.36c0.52,2.81-3.69,6.31-3.42,9.21
			C331.29,154.41,336.07,157.09,336.07,160z"/>
		<g>
			<circle class="st4" cx="240" cy="160" r="72.39"/>
			<circle class="st5" cx="240" cy="160" r="78.72"/>
		</g>
	</g>
	<g>
		<path class="st6" d="M208.49,205.52c-2.25-3.96-0.72-10.18,3.93-14.83c5.28-5.28,12.58-6.53,16.3-2.81c0,0.01,0.01,0.01,0.01,0.02
			c-0.74,2.17-3.12,6.78-10.24,9.28C211.98,199.47,209.46,203.11,208.49,205.52L208.49,205.52z"/>
		<path class="st6" d="M226.53,193.97c-1.7,1.7-4.12,3.38-7.55,4.58c-6.96,2.44-8.9,6.43-9.44,8.37c0.02,0.03,0.05,0.05,0.07,0.08
			c3.73,3.73,11.03,2.47,16.3-2.81c4.7-4.7,6.21-10.99,3.86-14.95C229.21,190.56,228.22,192.28,226.53,193.97L226.53,193.97z"/>
	</g>
	<g>
		<g>
			<path class="st6" d="M258.98,120.29c-8.15,1.07-8.99,1.78-8.99,11.76V176c0,15.68-2.2,23.88-9.2,31
				c-3.45,3.56-6.9,5.46-9.72,6.89l-1.67-3.56c5.96-3.33,9.3-8.79,10.45-15.68c0.94-5.7,1.04-12.59,1.04-22.57v-40.03
				c0-9.98-0.94-10.81-9.51-11.76v-3.33h27.59V120.29z"/>
		</g>
	</g>
</g>
</svg>
