<?xml version="1.0" encoding="utf-8"?>
<!-- Generator: Adobe Illustrator 23.0.1, SVG Export Plug-In . SVG Version: 6.00 Build 0)  -->
<svg version="1.1" id="圖層_1" xmlns="http://www.w3.org/2000/svg" xmlns:xlink="http://www.w3.org/1999/xlink" x="0px" y="0px"
	 viewBox="0 0 480 320" style="enable-background:new 0 0 480 320;" xml:space="preserve">
<style type="text/css">
	.st0{fill:none;stroke:#000000;stroke-miterlimit:10;}
	.st1{fill:none;stroke:#000000;stroke-width:6;stroke-miterlimit:10;}
	.st2{fill:none;stroke:#000000;stroke-width:0.5;stroke-miterlimit:10;}
	.st3{font-family:'Simplifica';}
	.st4{font-size:55.123px;}
	.st5{letter-spacing:1;}
	.st6{fill:#6A3906;}
	.st7{fill:none;stroke:#FFFFFF;stroke-width:2;stroke-miterlimit:10;}
	.st8{fill:none;stroke:#FFFFFF;stroke-miterlimit:10;}
	.st9{fill:#FFFFFF;}
</style>
<g>
	<text transform="matrix(1 0 0 1 147.7963 152.5695)"><tspan x="0" y="0" class="st3 st4 st5">JAZZ </tspan><tspan x="0" y="41.34" class="st3 st4 st5">  COFFEE</tspan></text>
	<g>
		<g>
			<circle class="st1" cx="213.04" cy="160" r="83.33"/>
			<circle class="st2" cx="213.04" cy="160" r="99.66"/>
		</g>
		<path d="M346.73,140.11h-35.87c1.3,6.43,1.99,13.08,1.99,19.89s-0.69,13.46-1.99,19.89h35.87c10.98,0,19.89-8.9,19.89-19.89
			C366.62,149.02,357.72,140.11,346.73,140.11z"/>
	</g>
	<g>
		<path d="M273.86,222.3c0.17-0.21,0.33-0.42,0.49-0.63H154.88c0.16,0.21,0.33,0.42,0.49,0.63H273.86z"/>
		<path d="M279.16,214.79H150.08c0.13,0.21,0.27,0.42,0.4,0.63h128.27C278.89,215.21,279.03,215,279.16,214.79z"/>
		<path d="M282.94,207.91H146.3c0.1,0.21,0.22,0.42,0.32,0.63h136C282.72,208.32,282.84,208.12,282.94,207.91z"/>
		<path d="M285.85,201.02H143.4c0.08,0.21,0.16,0.42,0.24,0.63H285.6C285.68,201.44,285.77,201.24,285.85,201.02z"/>
		<path d="M287.99,194.14H141.25c0.05,0.21,0.12,0.42,0.18,0.63h146.38C287.87,194.56,287.93,194.35,287.99,194.14z"/>
	</g>
</g>
</svg>
