<?xml version="1.0" encoding="utf-8"?>
<!-- Generator: Adobe Illustrator 23.0.1, SVG Export Plug-In . SVG Version: 6.00 Build 0)  -->
<svg version="1.1" id="圖層_1" xmlns="http://www.w3.org/2000/svg" xmlns:xlink="http://www.w3.org/1999/xlink" x="0px" y="0px"
	 viewBox="0 0 480 320" style="enable-background:new 0 0 480 320;" xml:space="preserve">
<style type="text/css">
	.st0{fill:none;stroke:#000000;stroke-miterlimit:10;}
	.st1{fill:none;stroke:#000000;stroke-width:6;stroke-miterlimit:10;}
	.st2{fill:none;stroke:#000000;stroke-width:0.5;stroke-miterlimit:10;}
	.st3{fill:#6A3906;}
	.st4{fill:none;stroke:#FFFFFF;stroke-width:2;stroke-miterlimit:10;}
	.st5{fill:none;stroke:#FFFFFF;stroke-miterlimit:10;}
	.st6{fill:#FFFFFF;}
</style>
<g>
	<path d="M260.5,70.29c-0.26-0.06-1.22-0.31-3.09-0.79c-4.09-1.09-8.5,1.65-7.59,11.48v49.77c0,17.76-3.56,27.04-14.9,35.11
		c-5.59,4.04-11.18,6.19-15.75,7.8l-2.71-4.04c9.65-3.77,15.07-9.96,16.94-17.76c1.52-6.46,1.69-14.26,1.69-25.56V80.97
		c0-8.94-3.97-13.52-10.66-12c-0.6,0.11-0.88,0.22-1.55,0.42l-1.75,0.44c-35.61,8.38-58.77,44.7-58.77,89.4
		c0,50.86,34.77,92.1,77.65,92.1s77.65-41.23,77.65-92.1C317.65,114.66,295.95,78.81,260.5,70.29z M221.44,161.47
		c-6.19,5.43-14.51,6.48-18.56,2.36c-0.03-0.03-0.05-0.06-0.08-0.09c0.69-2.04,3.06-6.23,11.03-8.56c3.93-1.15,6.74-2.84,8.73-4.59
		c1.99-1.74,3.17-3.54,3.87-4.93C228.92,149.98,226.95,156.64,221.44,161.47z M206.74,146.52c6.19-5.43,14.51-6.48,18.56-2.35
		c0,0.01,0.01,0.01,0.01,0.02c-0.93,2.29-3.82,7.12-11.98,9.51c-7.48,2.18-10.47,5.97-11.67,8.51
		C199.29,157.88,201.28,151.3,206.74,146.52z M280.42,216.34h-8.47c-6.18,12.28-19.95,20.84-35.96,20.84
		c-21.8,0-39.46-15.82-39.46-35.33v-18.14h52.65v-0.01h31.23c10.06,0,18.23,7.31,18.23,16.31
		C298.64,209.02,290.47,216.34,280.42,216.34z"/>
	<path d="M280.41,192.28h-4.97v9.57c0,2.02-0.24,3.98-0.59,5.9h5.56c4.77,0,8.63-3.47,8.63-7.74
		C289.04,195.75,285.17,192.28,280.41,192.28z"/>
</g>
</svg>
