<?xml version="1.0" encoding="utf-8"?>
<!-- Generator: Adobe Illustrator 23.0.1, SVG Export Plug-In . SVG Version: 6.00 Build 0)  -->
<svg version="1.1" id="圖層_1" xmlns="http://www.w3.org/2000/svg" xmlns:xlink="http://www.w3.org/1999/xlink" x="0px" y="0px"
	 viewBox="0 0 480 320" style="enable-background:new 0 0 480 320;" xml:space="preserve">
<style type="text/css">
	.st0{fill:none;stroke:#000000;stroke-miterlimit:10;}
	.st1{fill:none;stroke:#000000;stroke-width:6;stroke-miterlimit:10;}
	.st2{fill:none;stroke:#000000;stroke-width:0.5;stroke-miterlimit:10;}
	.st3{fill:#6A3906;}
	.st4{fill:none;stroke:#FFFFFF;stroke-width:2;stroke-miterlimit:10;}
	.st5{fill:none;stroke:#FFFFFF;stroke-miterlimit:10;}
	.st6{fill:#FFFFFF;}
</style>
<g>
	<path d="M284.23,185.99h-5.36v9.46c0,2-0.25,3.93-0.64,5.84h5.99c5.13,0,9.3-3.43,9.3-7.65
		C293.53,189.42,289.36,185.99,284.23,185.99z"/>
	<path d="M255.51,70.35c-8.32-1.56-9.4,2.12-9.4,12.56v47.31c0,16.88-2.47,25.7-10.36,33.37c-3.88,3.84-7.77,5.88-10.94,7.41
		l-1.88-3.84c6.71-3.58,10.47-9.46,11.77-16.88c1.06-6.14,1.18-13.55,1.18-24.29V82.92c0-10.74-1.98-15.33-10.56-12.77l-0.15,0.04
		c-34.75,8.29-60.95,45.11-60.95,89.3c0,50.29,33.93,91.05,75.78,91.05s75.78-40.77,75.78-91.05
		C315.78,115.59,289.93,78.96,255.51,70.35z M223.5,161.95c-6.04,5.36-14.16,6.41-18.12,2.33c-0.02-0.03-0.05-0.06-0.07-0.08
		c0.68-2.02,2.99-6.16,10.77-8.47c3.83-1.14,6.57-2.8,8.52-4.54c1.94-1.72,3.1-3.5,3.77-4.87
		C230.8,150.59,228.88,157.18,223.5,161.95z M209.15,147.18c6.04-5.36,14.16-6.41,18.12-2.33c0,0.01,0.01,0.01,0.01,0.02
		c-0.91,2.26-3.73,7.04-11.69,9.4c-7.3,2.16-10.22,5.9-11.39,8.41C201.89,158.41,203.83,151.9,209.15,147.18z M284.24,209.77h-9.13
		c-6.66,12.14-21.49,20.61-38.73,20.61c-23.48,0-42.51-15.64-42.51-34.93v-17.94h56.71v-0.01h33.64c10.84,0,19.64,7.23,19.64,16.13
		C303.87,202.54,295.07,209.77,284.24,209.77z"/>
</g>
</svg>
