<?xml version="1.0" encoding="utf-8"?>
<!-- Generator: Adobe Illustrator 23.0.1, SVG Export Plug-In . SVG Version: 6.00 Build 0)  -->
<svg version="1.1" id="圖層_1" xmlns="http://www.w3.org/2000/svg" xmlns:xlink="http://www.w3.org/1999/xlink" x="0px" y="0px"
	 viewBox="0 0 480 320" style="enable-background:new 0 0 480 320;" xml:space="preserve">
<style type="text/css">
	.st0{fill:none;stroke:#000000;stroke-miterlimit:10;}
	.st1{fill:none;stroke:#000000;stroke-width:6;stroke-miterlimit:10;}
	.st2{fill:none;stroke:#000000;stroke-width:0.5;stroke-miterlimit:10;}
	.st3{fill:#6A3906;}
	.st4{fill:none;stroke:#FFFFFF;stroke-width:2;stroke-miterlimit:10;}
	.st5{fill:none;stroke:#FFFFFF;stroke-miterlimit:10;}
	.st6{fill:#FFFFFF;}
</style>
<g>
	<g>
		<path d="M311.98,127.17c-7.69-26.1-23.78-45.56-49.71-55.67c-11.17-4.35-18.08,1.43-15.74,13.08
			c7.01,32.14-12.95,45.7-13.39,46.08c0.03,0.44,0.06,0.83,0.09,1.22c0.13,1.45,0.11,2.91,0.43,4.34c0.41,1.82,1.2,3.49,2.13,5.1
			c1.56,2.68,3.44,5.13,5.25,7.64c1.24,1.72,2.46,3.47,3.45,5.36c0.65,1.23,1.19,2.51,1.41,3.89c0.12,0.78,0.17,1.58,0.13,2.37
			c-0.08,1.82-0.5,3.57-1.28,5.22c-2.06,4.31-5.41,7.05-10.06,8.17c-0.65,0.16-1.32,0.2-1.98,0.3c-0.07,0.01-0.15,0.03-0.22,0.05
			c-0.64,0-1.29,0-1.93,0c-0.08-0.02-0.16-0.04-0.25-0.05c-0.78-0.13-1.57-0.2-2.34-0.39c-2.87-0.71-5.29-2.19-7.26-4.38
			c-1.94-2.15-3.13-4.67-3.56-7.54c-0.06-0.4-0.11-0.8-0.16-1.2c0-0.62,0-1.25,0-1.87c0.05-0.37,0.1-0.75,0.15-1.12
			c0.19-1.44,0.57-2.83,1.01-4.2c1-3.07,2.36-5.98,3.92-8.8c1.71-3.1,3.63-6.07,5.88-8.81c0.74-0.9,1.54-1.75,2.34-2.58
			c0.84-0.86,1.72-1.68,2.58-2.52c0.06-0.06,0.13-0.12,0.24-0.22c0.19-1.31,10.44-30.92,6.44-43.65
			c-4.63-14.74-15.17-19.19-28.88-12.48c-3.05,1.49-6.04,3.16-8.84,5.06c-48.31,32.7-52.57,112.89-8.12,152.24
			c29.29,25.92,71.29,24.01,97.58-5.32C317.18,197.6,322.75,163.71,311.98,127.17z M278.12,218.94H270
			c-5.93,12.04-19.13,20.45-34.48,20.45c-20.9,0-37.83-15.52-37.83-34.66v-17.8h50.47v-0.01h29.95c9.65,0,17.48,7.18,17.48,16.01
			C295.59,211.76,287.76,218.94,278.12,218.94z"/>
		<path d="M223.6,154.68c-0.03,0.01-0.05,0-0.06,0.01c-0.05,0.04-0.1,0.09-0.14,0.14c-1.7,1.87-2.55,4.09-2.59,6.59
			c-0.02,1.22,0.23,2.42,0.78,3.53c1.01,2.06,2.49,3.63,4.66,4.49c1.04,0.41,2.11,0.56,3.26,0.37c-0.49-0.28-0.94-0.51-1.37-0.78
			c-2.16-1.35-3.62-3.26-4.46-5.65c-0.73-2.09-0.6-4.24-0.36-6.39C223.39,156.23,223.5,155.46,223.6,154.68z"/>
	</g>
	<path d="M274.98,195.34h-4.77v9.39c0,1.98-0.23,3.9-0.57,5.79h5.33c4.57,0,8.28-3.4,8.28-7.59
		C283.26,198.74,279.55,195.34,274.98,195.34z"/>
</g>
</svg>
