<?xml version="1.0" encoding="utf-8"?>
<!-- Generator: Adobe Illustrator 23.0.1, SVG Export Plug-In . SVG Version: 6.00 Build 0)  -->
<svg version="1.1" id="圖層_1" xmlns="http://www.w3.org/2000/svg" xmlns:xlink="http://www.w3.org/1999/xlink" x="0px" y="0px"
	 viewBox="0 0 480 320" style="enable-background:new 0 0 480 320;" xml:space="preserve">
<style type="text/css">
	.st0{fill:#1D2C6A;}
	.st1{fill:#5B4926;}
	.st2{fill:#1D2088;}
	.st3{fill:#382F2D;}
	.st4{fill:#102042;}
	.st5{fill:#112E8C;}
</style>
<g>
	<path class="st3" d="M205.83,280.82v6.45h-7.53v2.2c1.84-0.12,3.5-0.3,5-0.53c-0.2-0.32-0.4-0.63-0.6-0.94l1.79-0.55
		c0.83,1.12,1.54,2.31,2.13,3.58l-1.79,0.83c-0.21-0.5-0.44-0.98-0.69-1.42c-1.87,0.41-4.83,0.8-8.9,1.15l-0.25-1.97
		c0.43-0.02,0.84-0.03,1.24-0.05v-8.74H205.83z M214.8,270.95l0.9,1.63c-0.8,0.11-1.62,0.21-2.48,0.3l-0.78,2.48h2.64v4.57h-19.09
		v-4.57h2.78l-0.85-1.79h-1.93l-0.55-1.72C203.05,271.84,209.51,271.55,214.8,270.95z M201.63,278.41v-1.54h-3.51v1.54H201.63z
		 M198.3,283.41h5.46v-1.15h-5.46V283.41z M198.3,285.84h5.46v-1.08h-5.46V285.84z M200.92,275.36h3.88l-0.6-1.9
		c-1.35,0.05-2.72,0.08-4.13,0.09L200.92,275.36z M207.28,278.41v-1.54h-3.67v1.54H207.28z M206.96,275.36h3.33l0.73-2.27
		c-1.48,0.11-3.04,0.2-4.68,0.28L206.96,275.36z M206.38,282.08h5.83v-1.54h2.04v1.54h1.81v1.79h-1.81v5.83
		c0,0.72-0.18,1.22-0.53,1.49c-0.32,0.32-0.92,0.48-1.79,0.48h-2.52l-0.34-1.97c0.93,0.12,1.71,0.18,2.32,0.18
		c0.55,0,0.83-0.15,0.83-0.46v-5.55h-5.83V282.08z M208.79,284.49c0.79,1.1,1.48,2.27,2.07,3.51l-1.88,0.8
		c-0.63-1.39-1.32-2.62-2.07-3.67L208.79,284.49z M212.92,278.41v-1.54h-3.67v1.54H212.92z"/>
	<path class="st3" d="M218.29,277.42h8.97v-6.47h2.41v6.47h9.16v2.13h-9.16v9.16h8.08v2.07H219.1v-2.07h8.17v-9.16h-8.97V277.42z"/>
	<path class="st3" d="M247.07,272.49v15.86h-3.49v2.07h-1.79v-17.92H247.07z M243.58,286.65h1.7v-12.46h-1.7V286.65z M247.69,274.99
		h1.65c0.03-1.22,0.05-2.54,0.07-3.95h1.97c-0.02,1.41-0.04,2.72-0.07,3.95h3.28c0,7.51-0.07,11.96-0.21,13.36
		c-0.09,1.09-0.28,1.8-0.57,2.13c-0.32,0.43-0.93,0.64-1.81,0.64c-0.49,0-1.05-0.03-1.7-0.09l-0.37-2.23
		c0.67,0.12,1.36,0.18,2.06,0.18c0.35,0,0.55-0.45,0.6-1.35c0.06-1.1,0.1-4.72,0.12-10.85h-1.45c-0.12,2.88-0.33,5.26-0.62,7.16
		c-0.38,2.74-1.25,5.32-2.59,7.73l-1.36-1.7c0.98-1.88,1.64-3.88,2-6.01c0.28-1.71,0.47-4.11,0.6-7.18h-1.61V274.99z M261.23,272.21
		v18.91h-1.97v-1.51h-1.61v1.7h-1.97v-19.09H261.23z M257.65,287.91h1.61V274h-1.61V287.91z"/>
	<path class="st3" d="M270.57,272.3v11.96c1.41-0.29,2.86-0.71,4.36-1.26c0.01-0.35,0.02-0.72,0.02-1.1v-1.08h-3.4v-1.97h3.4v-2.78
		h-3.49v-1.97h3.49v-3.3h2.07v11.11c0,2.2-0.34,4.02-1.03,5.46c-0.66,1.44-1.93,2.91-3.81,4.41l-1.7-1.54
		c1.68-1.12,2.87-2.31,3.56-3.58c0.26-0.43,0.46-0.93,0.6-1.51c-1.01,0.4-2.16,0.75-3.44,1.06l-0.62-1.45V288h-4.04v2.04h-1.97
		V272.3H270.57z M266.53,286.12h2.07v-11.93h-2.07V286.12z M278.8,270.79h2.07v3.3h3.76v1.97h-3.76v3.14h3.4v1.97h-3.4v3.58h4.04
		v1.88h-4.04v5.21h-2.07V270.79z"/>
</g>
<g>
	<path d="M144.57,252.66c2.42-0.14,3.99-1.12,3.99-4.73v-25.35h1.38v25.35c0,2.29-0.62,3.96-1.83,4.95c-0.86,0.71-2,1.09-3.54,1.17
		V252.66z"/>
	<path d="M165.39,231.57c3.31,0,6.42,1.49,8.54,4.08l1.23,1.5v-4.38h1.39v21.29h-1.39v-5.58l-1.23,1.5
		c-2.12,2.59-5.23,4.08-8.54,4.08c-6.12,0-11.09-5.04-11.09-11.25C154.3,236.61,159.28,231.57,165.39,231.57z M165.39,232.97
		c-5.35,0-9.71,4.41-9.71,9.84c0,5.42,4.35,9.84,9.71,9.84c5.35,0,9.71-4.42,9.71-9.84C175.1,237.39,170.74,232.97,165.39,232.97z"
		/>
	<path d="M195.99,233.01l-12.92,19.64h12.92v1.41h-14.56v-1.44l12.92-19.64h-12.92v-1.41h14.56V233.01z"/>
	<path d="M213.92,233.01L201,252.65h12.92v1.41h-14.56v-1.44l12.92-19.64h-12.92v-1.41h14.56V233.01z"/>
	<path d="M237.38,251.9l0.51,1.3c-1.63,0.57-3.33,0.86-5.07,0.86c-8.57,0-15.53-7.07-15.53-15.75c0-8.68,6.97-15.75,15.53-15.75
		c1.74,0,3.44,0.29,5.07,0.86l-0.51,1.3c-1.46-0.51-2.99-0.76-4.56-0.76c-7.8,0-14.15,6.44-14.15,14.35s6.35,14.35,14.15,14.35
		C234.39,252.66,235.92,252.4,237.38,251.9z"/>
	<path d="M263.45,242.81c0,6.2-4.98,11.25-11.09,11.25c-6.12,0-11.09-5.04-11.09-11.25c0-6.2,4.98-11.25,11.09-11.25
		C258.47,231.57,263.45,236.61,263.45,242.81z M262.06,242.81c0-5.43-4.35-9.84-9.71-9.84c-5.35,0-9.71,4.41-9.71,9.84
		c0,5.42,4.35,9.84,9.71,9.84C257.71,252.65,262.06,248.24,262.06,242.81z"/>
	<path d="M267.84,228.41c0-3.06,2.27-5.58,5.18-5.93v1.42c-1.99,0.32-3.59,2-3.78,4.09l0,3.58h3.74v1.41h-3.74v21.08h-1.39v-24.95
		h-0.02V228.41z"/>
	<path d="M277.39,228.41c0-3.06,2.27-5.58,5.18-5.93v1.42c-1.99,0.32-3.59,2-3.78,4.09l0,3.58h3.74v1.41h-3.74v21.08h-1.39v-24.95
		h-0.02V228.41z"/>
	<path d="M287.32,242.53c0,0.09-0.01,0.19-0.01,0.28c0,5.42,4.35,9.84,9.71,9.84c2.68,0,5.1-1.1,6.86-2.89l0.98,0.99
		c-2.01,2.04-4.78,3.3-7.84,3.3c-6.12,0-11.09-5.04-11.09-11.25c0-6.2,4.58-11.25,10.7-11.25c5.55,0,9.76,4.15,10.57,9.56
		c0.07,0.46,0.11,0.93,0.12,1.41h-1.39H287.32z M287.46,241.12h18.33c-0.79-4.62-4.38-8.15-9.16-8.15S288.25,236.5,287.46,241.12z"
		/>
	<path d="M312.07,242.53c0,0.09-0.01,0.19-0.01,0.28c0,5.42,4.35,9.84,9.71,9.84c2.68,0,5.1-1.1,6.86-2.89l0.98,0.99
		c-2.01,2.04-4.78,3.3-7.84,3.3c-6.12,0-11.09-5.04-11.09-11.25c0-6.2,4.58-11.25,10.7-11.25c5.55,0,9.76,4.15,10.57,9.56
		c0.07,0.46,0.11,0.93,0.12,1.41h-1.39H312.07z M312.21,241.12h18.33c-0.79-4.62-4.38-8.15-9.16-8.15S313,236.5,312.21,241.12z"/>
</g>
<g>
	<g>
		<path class="st5" d="M260.5,22.08c-0.26-0.06-1.22-0.31-3.09-0.79c-4.09-1.09-8.5,1.65-7.59,11.48v49.77
			c0,17.76-3.56,27.04-14.9,35.11c-5.59,4.04-11.18,6.19-15.75,7.8l-2.71-4.04c9.65-3.77,15.07-9.96,16.94-17.76
			c1.52-6.46,1.69-14.26,1.69-25.56V32.77c0-8.94-3.97-13.52-10.66-12c-0.6,0.11-0.88,0.22-1.55,0.42l-1.75,0.44
			c-35.61,8.38-58.77,44.7-58.77,89.4c0,50.86,34.77,92.1,77.65,92.1s77.65-41.23,77.65-92.1C317.65,66.45,295.95,30.6,260.5,22.08z
			 M221.44,113.26c-6.19,5.43-14.51,6.48-18.56,2.36c-0.03-0.03-0.05-0.06-0.08-0.09c0.69-2.04,3.06-6.23,11.03-8.56
			c3.93-1.15,6.74-2.84,8.73-4.59c1.99-1.74,3.17-3.54,3.87-4.93C228.92,101.77,226.95,108.43,221.44,113.26z M206.74,98.31
			c6.19-5.43,14.51-6.48,18.56-2.35c0,0.01,0.01,0.01,0.01,0.02c-0.93,2.29-3.82,7.12-11.98,9.51c-7.48,2.18-10.47,5.97-11.67,8.51
			C199.29,109.67,201.28,103.1,206.74,98.31z M280.42,168.13h-8.47c-6.18,12.28-19.95,20.84-35.96,20.84
			c-21.8,0-39.46-15.82-39.46-35.33V135.5h52.65v-0.01h31.23c10.06,0,18.23,7.31,18.23,16.31
			C298.64,160.81,290.47,168.13,280.42,168.13z"/>
	</g>
	<g>
		<path class="st5" d="M280.41,144.08h-4.97v9.57c0,2.02-0.24,3.98-0.59,5.9h5.56c4.77,0,8.63-3.47,8.63-7.74
			C289.04,147.55,285.17,144.08,280.41,144.08z"/>
	</g>
</g>
</svg>
