<?xml version="1.0" encoding="utf-8"?>
<!-- Generator: Adobe Illustrator 23.0.1, SVG Export Plug-In . SVG Version: 6.00 Build 0)  -->
<svg version="1.1" id="圖層_1" xmlns="http://www.w3.org/2000/svg" xmlns:xlink="http://www.w3.org/1999/xlink" x="0px" y="0px"
	 viewBox="0 0 480 320" style="enable-background:new 0 0 480 320;" xml:space="preserve">
<style type="text/css">
	.st0{fill:#1D2C6A;}
	.st1{fill:#5B4926;}
	.st2{fill:#1D2088;}
	.st3{fill:#382F2D;}
	.st4{fill:#102042;}
	.st5{fill:#112E8C;}
</style>
<g>
	<g>
		<path class="st0" d="M260.5,17.09c-0.26-0.06-1.22-0.31-3.09-0.79c-4.09-1.09-8.5,1.65-7.59,11.48v49.77
			c0,17.76-3.56,27.04-14.9,35.11c-5.59,4.04-11.18,6.19-15.75,7.8l-2.71-4.04c9.65-3.77,15.07-9.96,16.94-17.76
			c1.52-6.46,1.69-14.26,1.69-25.56V27.77c0-8.94-3.97-13.52-10.66-12c-0.6,0.11-0.88,0.22-1.55,0.42l-1.75,0.44
			c-35.61,8.38-58.77,44.7-58.77,89.4c0,50.86,34.77,92.1,77.65,92.1s77.65-41.23,77.65-92.1C317.65,61.46,295.95,25.61,260.5,17.09
			z M221.44,108.26c-6.19,5.43-14.51,6.48-18.56,2.35c-0.03-0.03-0.05-0.06-0.08-0.09c0.69-2.04,3.06-6.23,11.03-8.56
			c3.93-1.15,6.74-2.84,8.73-4.59c1.99-1.74,3.17-3.54,3.87-4.93C228.92,96.77,226.95,103.44,221.44,108.26z M206.74,93.32
			c6.19-5.43,14.51-6.48,18.56-2.35c0,0.01,0.01,0.01,0.01,0.02c-0.93,2.29-3.82,7.12-11.98,9.51c-7.48,2.18-10.47,5.97-11.67,8.51
			C199.29,104.68,201.28,98.1,206.74,93.32z M280.42,163.14h-8.47c-6.18,12.28-19.95,20.84-35.96,20.84
			c-21.8,0-39.46-15.82-39.46-35.33v-18.14h52.65v-0.01h31.23c10.06,0,18.23,7.31,18.23,16.31
			C298.64,155.82,290.47,163.14,280.42,163.14z"/>
	</g>
	<g>
		<path class="st0" d="M280.41,139.08h-4.97v9.57c0,2.02-0.24,3.98-0.59,5.9h5.56c4.77,0,8.63-3.47,8.63-7.74
			C289.04,142.55,285.17,139.08,280.41,139.08z"/>
	</g>
</g>
<g>
	<path class="st1" d="M151.78,228.42h1.72v17.09c0,6.31-3.09,8.06-6.57,8.06c-1.11,0-2.37-0.29-2.97-0.57l0.36-1.44
		c0.6,0.27,1.49,0.5,2.58,0.5c3.12,0,4.88-1.45,4.88-6.92V228.42z"/>
	<path class="st1" d="M162.97,244.51l-3.02,8.66h-1.77l8.83-24.74h1.68l8.79,24.74h-1.78l-3.07-8.66H162.97z M172.1,243.04
		l-2.97-8.27c-0.6-1.72-0.92-2.96-1.28-4.36h-0.09c-0.34,1.44-0.73,2.73-1.27,4.29l-2.99,8.34H172.1z"/>
	<path class="st1" d="M180.42,252l14.72-22.02v-0.1h-13.51v-1.47h15.72v1.17l-14.74,22v0.11h14.92v1.47h-17.11V252z"/>
	<path class="st1" d="M200.85,252l14.72-22.02v-0.1h-13.51v-1.47h15.72v1.17l-14.74,22v0.11h14.92v1.47h-17.11V252z"/>
	<path class="st1" d="M238.78,252.3c-1.23,0.63-3.59,1.25-6.58,1.25c-5.9,0-11.56-3.83-11.56-12.61c0-7.35,4.67-12.9,12.38-12.9
		c3.11,0,4.91,0.7,5.66,1.08l-0.56,1.48c-1.24-0.62-3.02-1.07-5.08-1.07c-6.58,0-10.6,4.34-10.6,11.45
		c0,6.73,3.79,11.06,10.32,11.06c2.09,0,4.12-0.43,5.51-1.15L238.78,252.3z"/>
	<path class="st1" d="M263.19,240.54c0,8.72-5.27,13.02-10.93,13.02c-6,0-10.65-4.79-10.65-12.53c0-8.11,4.84-13.02,10.95-13.02
		C258.72,228.01,263.19,232.88,263.19,240.54z M243.4,240.98c0,5.57,3.2,11.12,8.97,11.12c5.8,0,9.03-5.33,9.03-11.45
		c0-5.21-2.82-11.18-8.96-11.18C246.28,229.47,243.4,235.2,243.4,240.98z"/>
	<path class="st1" d="M268.41,228.42h12.06v1.48h-10.34v9.82h9.49v1.48h-9.49v11.97h-1.72V228.42z"/>
	<path class="st1" d="M286.05,228.42h12.06v1.48h-10.34v9.82h9.49v1.48h-9.49v11.97h-1.72V228.42z"/>
	<path class="st1" d="M315.17,240.86h-9.76v10.82h10.92v1.48h-12.64v-24.74h12.06v1.48h-10.34v9.49h9.76V240.86z"/>
	<path class="st1" d="M332.95,240.86h-9.76v10.82h10.92v1.48h-12.64v-24.74h12.06v1.48h-10.34v9.49h9.76V240.86z"/>
</g>
<g>
	<path class="st3" d="M205.83,285.91v6.45h-7.53v2.2c1.84-0.12,3.5-0.3,5-0.53c-0.2-0.32-0.4-0.63-0.6-0.94l1.79-0.55
		c0.83,1.12,1.54,2.31,2.13,3.58l-1.79,0.83c-0.21-0.5-0.44-0.98-0.69-1.42c-1.87,0.41-4.83,0.8-8.9,1.15L195,294.7
		c0.43-0.02,0.84-0.03,1.24-0.05v-8.74H205.83z M214.8,276.05l0.89,1.63c-0.79,0.11-1.62,0.21-2.48,0.3l-0.78,2.48h2.64v4.57h-19.09
		v-4.57h2.78l-0.85-1.79h-1.93l-0.55-1.72C203.06,276.94,209.51,276.64,214.8,276.05z M201.63,283.5v-1.54h-3.51v1.54H201.63z
		 M198.31,288.51h5.46v-1.15h-5.46V288.51z M198.31,290.94h5.46v-1.08h-5.46V290.94z M200.92,280.45h3.88l-0.6-1.9
		c-1.35,0.05-2.72,0.08-4.13,0.09L200.92,280.45z M207.28,283.5v-1.54h-3.67v1.54H207.28z M206.96,280.45h3.33l0.73-2.27
		c-1.48,0.11-3.04,0.2-4.68,0.28L206.96,280.45z M206.38,287.18h5.83v-1.54h2.04v1.54h1.81v1.79h-1.81v5.83
		c0,0.72-0.18,1.22-0.53,1.49c-0.32,0.32-0.92,0.48-1.79,0.48h-2.52l-0.34-1.97c0.93,0.12,1.71,0.18,2.32,0.18
		c0.55,0,0.83-0.15,0.83-0.46v-5.55h-5.83V287.18z M208.79,289.58c0.8,1.1,1.48,2.27,2.07,3.51l-1.88,0.8
		c-0.63-1.39-1.32-2.62-2.06-3.67L208.79,289.58z M212.92,283.5v-1.54h-3.67v1.54H212.92z"/>
	<path class="st3" d="M218.29,282.52h8.97v-6.47h2.41v6.47h9.16v2.13h-9.16v9.16h8.08v2.07H219.1v-2.07h8.17v-9.16h-8.97V282.52z"/>
	<path class="st3" d="M247.07,277.58v15.86h-3.49v2.07h-1.79v-17.92H247.07z M243.58,291.74h1.7v-12.46h-1.7V291.74z M247.69,280.08
		h1.65c0.03-1.22,0.05-2.54,0.07-3.95h1.97c-0.02,1.41-0.04,2.72-0.07,3.95h3.28c0,7.51-0.07,11.96-0.21,13.36
		c-0.09,1.09-0.28,1.8-0.57,2.13c-0.32,0.43-0.93,0.64-1.81,0.64c-0.49,0-1.05-0.03-1.7-0.09l-0.37-2.23
		c0.67,0.12,1.36,0.18,2.06,0.18c0.35,0,0.55-0.45,0.6-1.35c0.06-1.1,0.1-4.72,0.12-10.85h-1.45c-0.12,2.88-0.33,5.26-0.62,7.16
		c-0.38,2.74-1.25,5.32-2.59,7.73l-1.36-1.7c0.98-1.88,1.64-3.88,2-6.01c0.28-1.71,0.47-4.11,0.6-7.18h-1.61V280.08z M261.23,277.31
		v18.91h-1.97v-1.51h-1.61v1.7h-1.97v-19.09H261.23z M257.65,293h1.61V279.1h-1.61V293z"/>
	<path class="st3" d="M270.56,277.4v11.96c1.41-0.29,2.86-0.71,4.36-1.26c0.01-0.35,0.02-0.72,0.02-1.1v-1.08h-3.4v-1.97h3.4v-2.78
		h-3.49v-1.97h3.49v-3.3h2.07v11.11c0,2.2-0.34,4.02-1.03,5.46c-0.66,1.44-1.93,2.91-3.81,4.41l-1.7-1.54
		c1.68-1.12,2.87-2.31,3.56-3.58c0.26-0.43,0.46-0.93,0.6-1.51c-1.01,0.4-2.16,0.75-3.44,1.06l-0.62-1.45v3.26h-4.04v2.04h-1.97
		V277.4H270.56z M266.53,291.21h2.07v-11.93h-2.07V291.21z M278.8,275.89h2.07v3.3h3.76v1.97h-3.76v3.14h3.4v1.97h-3.4v3.58h4.04
		v1.88h-4.04v5.21h-2.07V275.89z"/>
</g>
</svg>
