<?xml version="1.0" encoding="utf-8"?>
<!-- Generator: Adobe Illustrator 23.0.1, SVG Export Plug-In . SVG Version: 6.00 Build 0)  -->
<svg version="1.1" id="圖層_1" xmlns="http://www.w3.org/2000/svg" xmlns:xlink="http://www.w3.org/1999/xlink" x="0px" y="0px"
	 viewBox="0 0 480 320" style="enable-background:new 0 0 480 320;" xml:space="preserve">
<style type="text/css">
	.st0{fill:#9E3223;}
	.st1{fill:#88431D;}
	.st2{fill:#373A36;}
	.st3{fill:#5B4926;}
	.st4{fill:#FFC844;}
	.st5{fill:#00754A;}
	.st6{fill:#EB6100;}
</style>
<g>
	<path class="st2" d="M260.5,48.09c-0.26-0.06-1.22-0.31-3.09-0.79c-4.09-1.09-8.5,1.65-7.59,11.48v49.77
		c0,17.76-3.56,27.04-14.9,35.11c-5.59,4.04-11.18,6.19-15.75,7.8l-2.71-4.04c9.65-3.77,15.07-9.96,16.94-17.76
		c1.52-6.46,1.69-14.26,1.69-25.56V58.77c0-8.94-3.97-13.52-10.66-12c-0.6,0.11-0.88,0.22-1.55,0.42l-1.75,0.44
		c-35.61,8.38-58.77,44.7-58.77,89.4c0,50.86,34.77,92.1,77.65,92.1s77.65-41.23,77.65-92.1C317.65,92.46,295.95,56.61,260.5,48.09z
		 M221.44,139.26c-6.19,5.43-14.51,6.48-18.56,2.35c-0.03-0.03-0.05-0.06-0.08-0.09c0.69-2.04,3.06-6.23,11.03-8.56
		c3.93-1.15,6.74-2.84,8.73-4.59c1.99-1.74,3.17-3.54,3.87-4.93C228.92,127.77,226.95,134.44,221.44,139.26z M206.74,124.32
		c6.19-5.43,14.51-6.48,18.56-2.35c0,0.01,0.01,0.01,0.01,0.02c-0.93,2.29-3.82,7.12-11.98,9.51c-7.48,2.18-10.47,5.97-11.67,8.51
		C199.29,135.68,201.28,129.1,206.74,124.32z M280.42,194.14h-8.47c-6.18,12.28-19.95,20.84-35.96,20.84
		c-21.8,0-39.46-15.82-39.46-35.33v-18.14h52.65v-0.01h31.23c10.06,0,18.23,7.31,18.23,16.31
		C298.64,186.82,290.47,194.14,280.42,194.14z"/>
	<path class="st2" d="M280.41,170.08h-4.97v9.57c0,2.02-0.24,3.98-0.59,5.9h5.56c4.77,0,8.63-3.47,8.63-7.74
		C289.04,173.55,285.17,170.08,280.41,170.08z"/>
</g>
<g>
	<g>
		<path class="st3" d="M151.78,256.42h1.72v17.09c0,6.31-3.09,8.06-6.57,8.06c-1.11,0-2.37-0.29-2.97-0.57l0.36-1.44
			c0.6,0.27,1.49,0.5,2.58,0.5c3.12,0,4.88-1.45,4.88-6.92V256.42z"/>
		<path class="st3" d="M162.97,272.51l-3.02,8.66h-1.77l8.83-24.74h1.68l8.79,24.74h-1.78l-3.07-8.66H162.97z M172.1,271.04
			l-2.97-8.27c-0.6-1.72-0.92-2.96-1.28-4.36h-0.09c-0.34,1.44-0.73,2.73-1.27,4.29l-2.99,8.34H172.1z"/>
		<path class="st3" d="M180.42,280l14.72-22.02v-0.1h-13.51v-1.47h15.72v1.17l-14.74,22v0.11h14.92v1.47h-17.11V280z"/>
		<path class="st3" d="M200.85,280l14.72-22.02v-0.1h-13.51v-1.47h15.72v1.17l-14.74,22v0.11h14.92v1.47h-17.11V280z"/>
		<path class="st3" d="M239.54,280.3c-1.23,0.63-3.59,1.25-6.58,1.25c-5.9,0-11.56-3.83-11.56-12.61c0-7.35,4.67-12.9,12.38-12.9
			c3.11,0,4.91,0.7,5.66,1.08l-0.56,1.48c-1.24-0.62-3.02-1.07-5.08-1.07c-6.58,0-10.6,4.34-10.6,11.45
			c0,6.73,3.79,11.06,10.32,11.06c2.09,0,4.12-0.43,5.51-1.15L239.54,280.3z"/>
		<path class="st3" d="M264.53,268.54c0,8.72-5.27,13.02-10.93,13.02c-6,0-10.65-4.79-10.65-12.53c0-8.11,4.84-13.02,10.95-13.02
			C260.06,256.01,264.53,260.88,264.53,268.54z M244.74,268.98c0,5.57,3.2,11.12,8.97,11.12c5.8,0,9.03-5.33,9.03-11.45
			c0-5.21-2.82-11.18-8.96-11.18C247.62,257.47,244.74,263.2,244.74,268.98z"/>
		<path class="st3" d="M269.75,256.42h12.06v1.48h-10.34v9.82h9.49v1.48h-9.49v11.97h-1.72V256.42z"/>
		<path class="st3" d="M287.39,256.42h12.06v1.48h-10.34v9.82h9.49v1.48h-9.49v11.97h-1.72V256.42z"/>
		<path class="st3" d="M316.51,268.86h-9.76v10.82h10.92v1.48h-12.64v-24.74h12.06v1.48h-10.34v9.49h9.76V268.86z"/>
		<path class="st3" d="M334.29,268.86h-9.76v10.82h10.92v1.48h-12.64v-24.74h12.06v1.48h-10.34v9.49h9.76V268.86z"/>
	</g>
</g>
</svg>
