<?xml version="1.0" encoding="utf-8"?>
<!-- Generator: Adobe Illustrator 23.0.1, SVG Export Plug-In . SVG Version: 6.00 Build 0)  -->
<svg version="1.1" id="圖層_1" xmlns="http://www.w3.org/2000/svg" xmlns:xlink="http://www.w3.org/1999/xlink" x="0px" y="0px"
	 viewBox="0 0 480 320" style="enable-background:new 0 0 480 320;" xml:space="preserve">
<style type="text/css">
	.st0{fill:none;stroke:#000000;stroke-miterlimit:10;}
	.st1{fill:none;stroke:#000000;stroke-width:6;stroke-miterlimit:10;}
	.st2{fill:none;stroke:#000000;stroke-width:0.5;stroke-miterlimit:10;}
	.st3{fill:#6A3906;}
	.st4{fill:none;stroke:#FFFFFF;stroke-width:2;stroke-miterlimit:10;}
	.st5{fill:none;stroke:#FFFFFF;stroke-miterlimit:10;}
	.st6{fill:#FFFFFF;}
</style>
<g>
	<path d="M236.79,87.11c-6.12-14.5-8.48-19.53-26.68-14.3c-3.32,0.95-6.15,3.22-9.01,5.16c-49.24,33.33-53.58,115.05-8.28,155.15
		c29.85,26.42,72.65,24.47,99.45-5.42c26.39-29.43,32.06-63.97,21.08-101.21c-7.84-26.6-24.23-46.43-50.66-56.73
		c-11.39-4.44-21.33,2.43-16.04,13.33c21.11,43.49-7.73,61.7-12.34,67.62c-0.27,0.35-0.83,0.09-0.73-0.34
		C236.01,140.17,252.6,124.54,236.79,87.11z M278.85,220.01h-8.28c-6.04,12.27-19.49,20.84-35.14,20.84
		c-21.3,0-38.56-15.81-38.56-35.33v-18.14h51.44v-0.01h30.52c9.83,0,17.81,7.31,17.81,16.31
		C296.66,212.69,288.67,220.01,278.85,220.01z"/>
	<path d="M275.65,195.96h-4.86v9.57c0,2.02-0.23,3.98-0.58,5.9h5.44c4.66,0,8.44-3.47,8.44-7.74
		C284.09,199.43,280.31,195.96,275.65,195.96z"/>
	<path class="st6" d="M242.05,165.94c-0.13-0.83-0.45-1.59-0.84-2.33c-0.59-1.13-1.32-2.17-2.06-3.21c-1.08-1.5-2.21-2.97-3.14-4.57
		c-0.56-0.96-1.03-1.96-1.28-3.05c-0.19-0.85-0.18-1.73-0.26-2.6c-0.02-0.24-0.04-0.49-0.06-0.76c-0.07,0.06-0.11,0.1-0.15,0.14
		c-0.52,0.5-1.04,0.99-1.54,1.51c-0.48,0.5-0.96,1.01-1.4,1.55c-1.35,1.64-2.49,3.41-3.52,5.27c-0.93,1.69-1.75,3.43-2.34,5.27
		c-0.27,0.82-0.49,1.65-0.61,2.51c-0.03,0.22-0.06,0.45-0.09,0.67c0,0.37,0,0.75,0,1.12c0.03,0.24,0.06,0.48,0.1,0.72
		c0.26,1.72,0.97,3.22,2.13,4.51c1.18,1.31,2.63,2.2,4.34,2.62c0.46,0.11,0.93,0.16,1.4,0.23c0.05,0.01,0.1,0.02,0.15,0.03
		c0.38,0,0.77,0,1.15,0c0.04-0.01,0.09-0.02,0.13-0.03c0.4-0.06,0.8-0.09,1.19-0.18c2.78-0.67,4.79-2.31,6.02-4.89
		c0.47-0.99,0.72-2.03,0.77-3.12C242.15,166.89,242.12,166.41,242.05,165.94z M230.28,172.66c-1.3-0.51-2.18-1.46-2.79-2.69
		c-0.33-0.67-0.48-1.38-0.46-2.12c0.03-1.5,0.53-2.83,1.55-3.95c0.03-0.03,0.06-0.06,0.09-0.08c0.01-0.01,0.02,0,0.04-0.01
		c-0.06,0.47-0.12,0.93-0.18,1.39c-0.14,1.29-0.22,2.58,0.22,3.83c0.5,1.43,1.37,2.57,2.67,3.38c0.26,0.16,0.53,0.3,0.82,0.47
		C231.54,173,230.9,172.91,230.28,172.66z"/>
</g>
</svg>
