<?xml version="1.0" encoding="utf-8"?>
<!-- Generator: Adobe Illustrator 23.0.1, SVG Export Plug-In . SVG Version: 6.00 Build 0)  -->
<svg version="1.1" id="圖層_1" xmlns="http://www.w3.org/2000/svg" xmlns:xlink="http://www.w3.org/1999/xlink" x="0px" y="0px"
	 viewBox="0 0 480 320" style="enable-background:new 0 0 480 320;" xml:space="preserve">
<style type="text/css">
	.st0{fill:#9E3223;}
	.st1{fill:#88431D;}
	.st2{fill:#373A36;}
	.st3{fill:#5B4926;}
	.st4{fill:#FFC844;}
	.st5{fill:#00754A;}
	.st6{fill:#EB6100;}
</style>
<g>
	<g>
		<path d="M145.8,250.06h2.25v22.35c0,8.26-4.04,10.54-8.59,10.54c-1.46,0-3.1-0.37-3.88-0.74l0.47-1.88
			c0.78,0.35,1.95,0.65,3.37,0.65c4.07,0,6.38-1.9,6.38-9.05V250.06z"/>
		<path d="M168.25,282.42l-0.33-3.3h-0.11c-1.1,1.78-3.63,3.83-7.24,3.83c-4.57,0-6.69-3.26-6.69-6.34c0-5.32,4.62-8.52,13.86-8.42
			v-0.61c0-2.28-0.44-6.83-5.81-6.79c-1.99,0-4.06,0.54-5.71,1.72l-0.71-1.66c2.07-1.43,4.6-1.99,6.66-1.99
			c6.56,0,7.81,4.99,7.81,9.11v8.99c0,1.82,0.07,3.71,0.33,5.47H168.25z M167.74,270.11c-4.95-0.14-11.48,0.61-11.48,6.14
			c0,3.31,2.15,4.8,4.52,4.8c3.79,0,5.94-2.38,6.72-4.62c0.17-0.49,0.24-0.98,0.24-1.38V270.11z"/>
		<path d="M174.75,281.03l12.24-16.36c0.84-1.13,1.69-2.18,2.6-3.31v-0.1h-13.85v-1.88h16.58l-0.04,1.55l-12.24,16.33
			c-0.81,1.09-1.59,2.11-2.43,3.18v0.1h14.76v1.88h-17.64V281.03z"/>
		<path d="M194.3,281.03l12.24-16.36c0.84-1.13,1.69-2.18,2.6-3.31v-0.1H195.3v-1.88h16.58l-0.04,1.55l-12.24,16.33
			c-0.81,1.09-1.59,2.11-2.43,3.18v0.1h14.76v1.88H194.3V281.03z"/>
		<path d="M238.59,281.29c-1.61,0.83-4.69,1.63-8.61,1.63c-7.72,0-15.1-5-15.1-16.49c0-9.61,6.11-16.87,16.18-16.87
			c4.06,0,6.42,0.91,7.4,1.42l-0.73,1.93c-1.62-0.82-3.94-1.4-6.64-1.4c-8.61,0-13.86,5.68-13.86,14.98
			c0,8.8,4.95,14.46,13.48,14.46c2.73,0,5.39-0.56,7.21-1.5L238.59,281.29z"/>
		<path d="M263.8,270.68c0,8.61-5.81,12.27-10.88,12.27c-5.88,0-10.42-4.63-10.42-11.87c0-7.88,5.1-12.23,10.75-12.23
			C259.53,258.85,263.8,263.62,263.8,270.68z M244.78,270.97c0,5.76,3.62,10.08,8.3,10.08c4.72,0,8.45-4.36,8.45-10.26
			c0-4.21-2.34-10.04-8.33-10.04C247.41,260.74,244.78,266,244.78,270.97z"/>
		<path d="M283.43,282.42v-21.19h-10.98v21.19h-2.25v-21.19h-3.28v-1.85h3.28v-0.96c0-3.59,0.8-6.41,2.52-8.17
			c1.2-1.24,2.84-1.91,4.96-1.91c1.43,0,2.72,0.49,3.39,0.94l-0.79,1.78c-0.64-0.41-1.71-0.78-2.82-0.78
			c-3.95,0-5.01,3.49-5.01,7.93v1.18h10.98v-1.26c0-3.55,0.67-6.42,2.51-8.29c1.4-1.4,3.25-2.02,5.04-2.02
			c1.47,0,2.72,0.38,3.4,0.79l-0.71,1.79c-0.64-0.34-1.5-0.65-2.89-0.65c-4.23,0-5.1,3.95-5.1,8.34v1.3h6.08v1.85h-6.08v21.19
			H283.43z"/>
		<path d="M296.53,270.68c0,7.36,3.95,10.27,8.64,10.27c3.31,0,5.03-0.67,6.32-1.31l0.58,1.8c-0.88,0.48-3.21,1.48-7.17,1.48
			c-6.53,0-10.59-4.82-10.59-11.57c0-7.69,4.34-12.5,10.21-12.5c7.45,0,8.85,7.09,8.85,10.42c0,0.65,0,1.01-0.07,1.42H296.53z
			 M311.02,268.86c0.06-3.22-1.27-8.11-6.79-8.11c-5,0-7.16,4.56-7.58,8.11H311.02z"/>
		<path d="M319.96,270.68c0,7.36,3.95,10.27,8.64,10.27c3.31,0,5.03-0.67,6.32-1.31l0.58,1.8c-0.88,0.48-3.21,1.48-7.17,1.48
			c-6.53,0-10.59-4.82-10.59-11.57c0-7.69,4.34-12.5,10.21-12.5c7.45,0,8.85,7.09,8.85,10.42c0,0.65,0,1.01-0.07,1.42H319.96z
			 M334.45,268.86c0.06-3.22-1.27-8.11-6.79-8.11c-5,0-7.16,4.56-7.58,8.11H334.45z"/>
	</g>
</g>
<g>
	<path class="st5" d="M260.5,50.28c-0.26-0.06-1.22-0.31-3.09-0.79c-4.09-1.09-8.5,1.65-7.59,11.48v49.77
		c0,17.76-3.56,27.04-14.9,35.11c-5.59,4.04-11.18,6.19-15.75,7.8l-2.71-4.04c9.65-3.77,15.07-9.96,16.94-17.76
		c1.52-6.46,1.69-14.26,1.69-25.56V60.97c0-8.94-3.97-13.52-10.66-12c-0.6,0.11-0.88,0.22-1.55,0.42l-1.75,0.44
		c-35.61,8.38-58.77,44.7-58.77,89.4c0,50.86,34.77,92.1,77.65,92.1s77.65-41.23,77.65-92.1C317.65,94.66,295.95,58.81,260.5,50.28z
		 M221.44,141.46c-6.19,5.43-14.51,6.48-18.56,2.35c-0.03-0.03-0.05-0.06-0.08-0.09c0.69-2.04,3.06-6.23,11.03-8.56
		c3.93-1.15,6.74-2.84,8.73-4.59c1.99-1.74,3.17-3.54,3.87-4.93C228.92,129.97,226.95,136.63,221.44,141.46z M206.74,126.52
		c6.19-5.43,14.51-6.48,18.56-2.35c0,0.01,0.01,0.01,0.01,0.02c-0.93,2.29-3.82,7.12-11.98,9.51c-7.48,2.18-10.47,5.97-11.67,8.51
		C199.29,137.88,201.28,131.3,206.74,126.52z M280.42,196.33h-8.47c-6.18,12.28-19.95,20.84-35.96,20.84
		c-21.8,0-39.46-15.82-39.46-35.33V163.7h52.65v-0.01h31.23c10.06,0,18.23,7.31,18.23,16.31
		C298.64,189.02,290.47,196.33,280.42,196.33z"/>
	<path class="st5" d="M280.41,172.28h-4.97v9.57c0,2.02-0.24,3.98-0.59,5.9h5.56c4.77,0,8.63-3.47,8.63-7.74
		C289.04,175.75,285.17,172.28,280.41,172.28z"/>
</g>
</svg>
