<?xml version="1.0" encoding="utf-8"?>
<!-- Generator: Adobe Illustrator 23.0.1, SVG Export Plug-In . SVG Version: 6.00 Build 0)  -->
<svg version="1.1" id="圖層_1" xmlns="http://www.w3.org/2000/svg" xmlns:xlink="http://www.w3.org/1999/xlink" x="0px" y="0px"
	 viewBox="0 0 480 320" style="enable-background:new 0 0 480 320;" xml:space="preserve">
<style type="text/css">
	.st0{fill:none;stroke:#000000;stroke-miterlimit:10;}
	.st1{fill:none;stroke:#000000;stroke-width:6;stroke-miterlimit:10;}
	.st2{fill:none;stroke:#000000;stroke-width:0.5;stroke-miterlimit:10;}
	.st3{fill:#6A3906;}
	.st4{fill:none;stroke:#FFFFFF;stroke-width:2;stroke-miterlimit:10;}
	.st5{fill:none;stroke:#FFFFFF;stroke-miterlimit:10;}
	.st6{fill:#FFFFFF;}
</style>
<g>
	<g>
		<path d="M194.54,146.73h35.39v-25.07h-35.39V146.73z M197.49,124.61h29.49v19.17h-29.49V124.61z M197.49,124.61"/>
		<path d="M250.58,180.64c0.81,0,1.48-0.65,1.48-1.48v-32.39c1.84-2.45,2.95-5.49,2.95-8.78V123.5c0-4.27-3.47-7.74-7.74-7.74
			h-68.58c-4.27,0-7.74,3.47-7.74,7.74v14.49c0,4.8,2.33,9.05,5.9,11.71v42.79c-3.3,0.29-5.9,3.04-5.9,6.41v5.34h84.06v-5.34
			c0-3.56-2.9-6.46-6.47-6.46h-0.91v-41.76c0.51-0.29,1-0.62,1.47-0.97v29.46C249.1,179.99,249.76,180.64,250.58,180.64
			L250.58,180.64z M248.54,195.39c1.94,0,3.51,1.58,3.51,3.51v2.38H173.9v-2.38c0-1.94,1.58-3.51,3.51-3.51H248.54z M201.92,187.25
			v-11.02h20.64v11.02c0,2.87-2.33,5.2-5.19,5.2h-10.26C204.24,192.45,201.92,190.11,201.92,187.25L201.92,187.25z M244.68,192.45
			h-21.05c1.17-1.41,1.88-3.23,1.88-5.2v-13.98h-30.97c-4.07,0-7.37,3.31-7.37,7.37c0,4.07,3.31,7.37,7.37,7.37h4.46
			c0.15,1.67,0.81,3.2,1.84,4.43H179.8v-41.01c0.01,0.01,0.02,0.01,0.04,0.01c0.35,0.15,0.71,0.27,1.07,0.4
			c0.1,0.04,0.2,0.08,0.3,0.12c0.43,0.14,0.88,0.25,1.33,0.34c0.03,0.01,0.06,0.01,0.09,0.02c0.96,0.19,1.94,0.3,2.96,0.3h14.86
			v10.33c0,3.25,2.64,5.9,5.9,5.9h1.48v1.48c0,0.81,0.66,1.47,1.48,1.47c0.81,0,1.48-0.65,1.48-1.47v-1.48h2.94v1.48
			c0,0.81,0.66,1.47,1.48,1.47c0.81,0,1.48-0.65,1.48-1.47v-1.48h1.48c2.74,0,5.02-1.89,5.69-4.43h10.53c2.44,0,4.43-1.98,4.43-4.42
			c0-2.44-1.99-4.42-4.43-4.42h-10.32v-2.95h16.34c0.66,0,1.32-0.06,1.96-0.14c0.15-0.02,0.3-0.05,0.45-0.07
			c0.65-0.11,1.29-0.25,1.9-0.43V192.45z M194.54,185.07c-2.44,0-4.43-1.99-4.43-4.43c0-2.44,1.99-4.42,4.43-4.42h4.42v8.85H194.54z
			 M218.59,161.48c-0.25,0-0.45-0.2-0.45-0.45v-2.05c0-0.25,0.2-0.45,0.45-0.45h15.77c0.81,0,1.48,0.66,1.48,1.48
			c0,0.81-0.66,1.48-1.48,1.48H218.59z M221.08,155.58h-2.5c-1.87,0-3.4,1.53-3.4,3.4v2.05c0,1.87,1.53,3.4,3.4,3.4h2.1
			c-0.51,0.88-1.46,1.47-2.55,1.47h-11.8c-1.62,0-2.94-1.32-2.94-2.94v-10.33h17.69V155.58z M245.93,148.26l-0.01,0.01
			c-0.15,0.08-0.32,0.15-0.48,0.22c-0.35,0.17-0.72,0.32-1.09,0.46c-0.05,0.02-0.11,0.04-0.16,0.06c-0.34,0.12-0.68,0.22-1.03,0.31
			c-0.09,0.02-0.17,0.04-0.25,0.06c-0.32,0.07-0.65,0.12-0.99,0.17c-0.09,0.01-0.19,0.03-0.29,0.05c-0.42,0.04-0.84,0.06-1.27,0.06
			h-54.8c-0.52,0-1.02-0.04-1.53-0.11c-0.13-0.01-0.26-0.04-0.39-0.06c-0.45-0.08-0.88-0.17-1.32-0.3
			c-0.06-0.01-0.12-0.03-0.17-0.04c-0.48-0.15-0.94-0.33-1.4-0.54c-0.11-0.05-0.22-0.1-0.32-0.16c-0.41-0.19-0.81-0.42-1.19-0.67
			c-3.21-2.08-5.35-5.7-5.35-9.81V123.5c0-2.64,2.15-4.79,4.79-4.79h68.58c2.64,0,4.79,2.15,4.79,4.79v14.49
			C252.05,142.42,249.58,146.28,245.93,148.26L245.93,148.26z M245.93,148.26"/>
		<path d="M240.26,120.18c-4.07,0-7.37,3.31-7.37,7.37c0,4.07,3.31,7.37,7.37,7.37c4.06,0,7.37-3.31,7.37-7.37
			C247.63,123.49,244.32,120.18,240.26,120.18L240.26,120.18z M240.26,131.98c-2.44,0-4.43-1.99-4.43-4.43
			c0-2.43,1.99-4.42,4.43-4.42c2.43,0,4.42,1.99,4.42,4.42C244.68,130,242.69,131.98,240.26,131.98L240.26,131.98z M240.26,131.98"
			/>
		<path d="M240.26,136.4c-3.26,0-5.91,2.65-5.91,5.9c0,3.26,2.65,5.91,5.91,5.91c3.25,0,5.9-2.65,5.9-5.91
			C246.16,139.05,243.51,136.4,240.26,136.4L240.26,136.4z M240.26,145.25c-1.63,0-2.95-1.33-2.95-2.95c0-1.62,1.33-2.94,2.95-2.94
			c1.62,0,2.94,1.33,2.94,2.94C243.2,143.93,241.88,145.25,240.26,145.25L240.26,145.25z M240.26,145.25"/>
		<path d="M179.8,131.98h11.79v-10.33H179.8V131.98z M182.74,124.61h5.91v4.42h-5.91V124.61z M182.74,124.61"/>
		<path d="M179.8,146.73h11.79V136.4H179.8V146.73z M182.74,139.36h5.91v4.42h-5.91V139.36z M182.74,139.36"/>
		<path d="M200.44,131.98c0.37,0,0.76-0.14,1.04-0.43l2.95-2.95c0.58-0.58,0.58-1.51,0-2.08c-0.58-0.58-1.5-0.58-2.08,0l-2.95,2.95
			c-0.58,0.58-0.58,1.51,0,2.09C199.68,131.84,200.07,131.98,200.44,131.98L200.44,131.98z M200.44,131.98"/>
		<path d="M209.72,126.52l-10.32,10.32c-0.58,0.58-0.58,1.51,0,2.09c0.29,0.29,0.67,0.43,1.04,0.43s0.76-0.14,1.04-0.43l10.32-10.32
			c0.58-0.58,0.58-1.51,0-2.08C211.23,125.94,210.3,125.94,209.72,126.52L209.72,126.52z M209.72,126.52"/>
	</g>
	<g>
		<g>
			<circle class="st1" cx="213.04" cy="160" r="83.33"/>
			<circle class="st2" cx="213.04" cy="160" r="99.66"/>
		</g>
		<path d="M346.73,140.11h-35.87c1.3,6.43,1.99,13.08,1.99,19.89s-0.69,13.46-1.99,19.89h35.87c10.98,0,19.89-8.9,19.89-19.89
			C366.62,149.02,357.72,140.11,346.73,140.11z"/>
	</g>
</g>
</svg>
