<?xml version="1.0" encoding="utf-8"?>
<!-- Generator: Adobe Illustrator 23.0.1, SVG Export Plug-In . SVG Version: 6.00 Build 0)  -->
<svg version="1.1" id="圖層_1" xmlns="http://www.w3.org/2000/svg" xmlns:xlink="http://www.w3.org/1999/xlink" x="0px" y="0px"
	 viewBox="0 0 480 320" style="enable-background:new 0 0 480 320;" xml:space="preserve">
<style type="text/css">
	.st0{fill:#9E3223;}
	.st1{fill:#88431D;}
	.st2{fill:#373A36;}
	.st3{font-family:'Simplifica';}
	.st4{font-size:48px;}
	.st5{letter-spacing:1;}
	.st6{fill:#5B4926;}
	.st7{fill:#FFC844;}
	.st8{fill:#00754A;}
	.st9{fill:#EB6100;}
</style>
<text transform="matrix(1 0 0 1 153.6738 280.0958)" class="st3 st4 st5">JAZZCOFFEE</text>
<g>
	<path class="st7" d="M260.5,45.38c-0.26-0.06-1.22-0.31-3.09-0.79c-4.09-1.09-8.5,1.65-7.59,11.48v49.77
		c0,17.76-3.56,27.04-14.9,35.11c-5.59,4.04-11.18,6.19-15.75,7.8l-2.71-4.04c9.65-3.77,15.07-9.96,16.94-17.76
		c1.52-6.46,1.69-14.26,1.69-25.56V56.06c0-8.94-3.97-13.52-10.66-12c-0.6,0.11-0.88,0.22-1.55,0.42l-1.75,0.44
		c-35.61,8.38-58.77,44.7-58.77,89.4c0,50.86,34.77,92.1,77.65,92.1s77.65-41.23,77.65-92.1C317.65,89.75,295.95,53.9,260.5,45.38z
		 M221.44,136.56c-6.19,5.43-14.51,6.48-18.56,2.36c-0.03-0.03-0.05-0.06-0.08-0.09c0.69-2.04,3.06-6.23,11.03-8.56
		c3.93-1.15,6.74-2.84,8.73-4.59c1.99-1.74,3.17-3.54,3.87-4.93C228.92,125.07,226.95,131.73,221.44,136.56z M206.74,121.61
		c6.19-5.43,14.51-6.48,18.56-2.35c0,0.01,0.01,0.01,0.01,0.02c-0.93,2.29-3.82,7.12-11.98,9.51c-7.48,2.18-10.47,5.97-11.67,8.51
		C199.29,132.97,201.28,126.39,206.74,121.61z M280.42,191.43h-8.47c-6.18,12.28-19.95,20.84-35.96,20.84
		c-21.8,0-39.46-15.82-39.46-35.33V158.8h52.65v-0.01h31.23c10.06,0,18.23,7.31,18.23,16.31
		C298.64,184.11,290.47,191.43,280.42,191.43z"/>
	<path class="st7" d="M280.41,167.37h-4.97v9.57c0,2.02-0.24,3.98-0.59,5.9h5.56c4.77,0,8.63-3.47,8.63-7.74
		C289.04,170.84,285.17,167.37,280.41,167.37z"/>
</g>
</svg>
