<?xml version="1.0" encoding="utf-8"?>
<!-- Generator: Adobe Illustrator 23.0.1, SVG Export Plug-In . SVG Version: 6.00 Build 0)  -->
<svg version="1.1" id="圖層_1" xmlns="http://www.w3.org/2000/svg" xmlns:xlink="http://www.w3.org/1999/xlink" x="0px" y="0px"
	 viewBox="0 0 480 320" style="enable-background:new 0 0 480 320;" xml:space="preserve">
<style type="text/css">
	.st0{fill:#1D2C6A;}
	.st1{fill:#5B4926;}
	.st2{fill:#1D2088;}
	.st3{fill:#382F2D;}
	.st4{fill:#102042;}
	.st5{fill:#112E8C;}
</style>
<g>
	<path d="M167.55,221.7v1.63v7.68v1.68v14.74c0,0.96-0.18,1.86-0.55,2.71c-0.37,0.85-0.86,1.58-1.49,2.21s-1.35,1.12-2.18,1.49
		c-0.83,0.37-1.73,0.55-2.69,0.55s-1.86-0.18-2.71-0.55c-0.85-0.37-1.58-0.86-2.21-1.49s-1.12-1.36-1.49-2.21
		c-0.37-0.85-0.55-1.75-0.55-2.71v-5.14h1.58v5.14c0,0.74,0.14,1.43,0.43,2.09c0.29,0.66,0.67,1.22,1.15,1.7
		c0.48,0.48,1.05,0.86,1.7,1.15c0.66,0.29,1.35,0.43,2.09,0.43s1.42-0.14,2.06-0.43c0.64-0.29,1.2-0.67,1.68-1.15
		c0.48-0.48,0.86-1.05,1.15-1.71c0.29-0.66,0.43-1.35,0.43-2.09v-14.76v-1.68v-7.69h-8.64v-1.58h8.64H167.55z"/>
	<path d="M186.6,254.14l-2.26-10.18h-9.31l-2.26,10.18h-1.63l7.2-32.45h2.69l7.2,32.45H186.6z M175.37,242.38h8.64l-4.32-19.39
		L175.37,242.38z"/>
	<path d="M192.94,252.56h11.42v1.58h-13.01v-1.59l11.42-29.28h-11.42v-1.58h13.01v1.63L192.94,252.56z"/>
	<path d="M209.54,252.56h11.42v1.58h-13.01v-1.59l11.42-29.28h-11.42v-1.58h13.01v1.63L209.54,252.56z"/>
	<path d="M231.53,252.8c0.74,0,1.42-0.14,2.06-0.43c0.64-0.29,1.2-0.67,1.68-1.15c0.48-0.48,0.86-1.05,1.15-1.7
		c0.29-0.66,0.43-1.35,0.43-2.09h1.58c0,0.96-0.18,1.86-0.55,2.71c-0.37,0.85-0.86,1.58-1.49,2.21s-1.35,1.12-2.18,1.49
		c-0.83,0.37-1.73,0.55-2.69,0.55s-1.86-0.18-2.71-0.55c-0.85-0.37-1.58-0.86-2.21-1.49s-1.12-1.36-1.49-2.21
		c-0.37-0.85-0.55-1.75-0.55-2.71v-18.96c0-0.96,0.18-1.86,0.55-2.71s0.86-1.58,1.49-2.21s1.36-1.12,2.21-1.49
		c0.85-0.37,1.75-0.55,2.71-0.55s1.86,0.18,2.69,0.54c0.83,0.36,1.56,0.84,2.18,1.46s1.12,1.35,1.49,2.2
		c0.37,0.85,0.55,1.75,0.55,2.71h-1.58c0-0.74-0.14-1.42-0.43-2.06c-0.29-0.64-0.67-1.2-1.15-1.68c-0.48-0.48-1.04-0.86-1.68-1.15
		c-0.64-0.29-1.33-0.43-2.06-0.43c-0.74,0-1.43,0.14-2.09,0.43c-0.66,0.29-1.22,0.67-1.7,1.15c-0.48,0.48-0.86,1.04-1.15,1.68
		s-0.43,1.33-0.43,2.07v18.99c0,0.74,0.14,1.43,0.43,2.09c0.29,0.66,0.67,1.23,1.15,1.71c0.48,0.48,1.05,0.87,1.7,1.15
		C230.1,252.66,230.79,252.8,231.53,252.8z"/>
	<path d="M249.96,254.38c-0.96,0-1.86-0.18-2.71-0.55c-0.85-0.37-1.58-0.86-2.21-1.49s-1.12-1.36-1.49-2.21
		c-0.37-0.85-0.55-1.75-0.55-2.71v-18.96c0-0.96,0.18-1.86,0.55-2.71s0.86-1.58,1.49-2.21s1.36-1.12,2.21-1.49
		c0.85-0.37,1.75-0.55,2.71-0.55s1.86,0.18,2.69,0.55c0.83,0.37,1.56,0.86,2.18,1.49s1.12,1.36,1.49,2.21
		c0.37,0.85,0.55,1.75,0.55,2.71v18.96c0,0.96-0.18,1.86-0.55,2.71c-0.37,0.85-0.86,1.58-1.49,2.21s-1.35,1.12-2.18,1.49
		C251.82,254.2,250.92,254.38,249.96,254.38z M249.96,223.09c-0.74,0-1.43,0.14-2.09,0.43c-0.66,0.29-1.22,0.67-1.7,1.15
		c-0.48,0.48-0.86,1.04-1.15,1.68s-0.43,1.33-0.43,2.07v18.99c0,0.74,0.14,1.43,0.43,2.09c0.29,0.66,0.67,1.23,1.15,1.71
		c0.48,0.48,1.05,0.87,1.7,1.15c0.66,0.29,1.35,0.43,2.09,0.43c0.74,0,1.42-0.14,2.06-0.43c0.64-0.29,1.2-0.67,1.68-1.15
		c0.48-0.48,0.86-1.05,1.15-1.71c0.29-0.66,0.43-1.35,0.43-2.09v-18.99c0-0.74-0.14-1.43-0.43-2.07c-0.29-0.64-0.67-1.2-1.15-1.68
		c-0.48-0.48-1.04-0.87-1.68-1.15C251.38,223.23,250.7,223.09,249.96,223.09z"/>
	<path d="M263.02,223.28v12.29h9.07v1.58h-9.07v16.99h-1.58V221.7h1.58h11.04v1.58H263.02z"/>
	<path d="M279.24,223.28v12.29h9.07v1.58h-9.07v16.99h-1.58V221.7h1.58h11.04v1.58H279.24z"/>
	<path d="M295.46,223.28v12.29h9.07v1.58h-9.07v15.41h11.04v1.58h-11.04h-1.58V221.7h1.58h11.04v1.58H295.46z"/>
	<path d="M311.69,223.28v12.29h9.07v1.58h-9.07v15.41h11.04v1.58h-11.04h-1.58V221.7h1.58h11.04v1.58H311.69z"/>
</g>
<g>
	<g>
		<path class="st2" d="M260.5,21.38c-0.26-0.06-1.22-0.31-3.09-0.79c-4.09-1.09-8.5,1.65-7.59,11.48v49.77
			c0,17.76-3.56,27.04-14.9,35.11c-5.59,4.04-11.18,6.19-15.75,7.8l-2.71-4.04c9.65-3.77,15.07-9.96,16.94-17.76
			c1.52-6.46,1.69-14.26,1.69-25.56V32.06c0-8.94-3.97-13.52-10.66-12c-0.6,0.11-0.88,0.22-1.55,0.42l-1.75,0.44
			c-35.61,8.38-58.77,44.7-58.77,89.4c0,50.86,34.77,92.1,77.65,92.1s77.65-41.23,77.65-92.1C317.65,65.75,295.95,29.9,260.5,21.38z
			 M221.44,112.56c-6.19,5.43-14.51,6.48-18.56,2.35c-0.03-0.03-0.05-0.06-0.08-0.09c0.69-2.04,3.06-6.23,11.03-8.56
			c3.93-1.15,6.74-2.84,8.73-4.59c1.99-1.74,3.17-3.54,3.87-4.93C228.92,101.07,226.95,107.73,221.44,112.56z M206.74,97.61
			c6.19-5.43,14.51-6.48,18.56-2.35c0,0.01,0.01,0.01,0.01,0.02c-0.93,2.29-3.82,7.12-11.98,9.51c-7.48,2.18-10.47,5.97-11.67,8.51
			C199.29,108.97,201.28,102.39,206.74,97.61z M280.42,167.43h-8.47c-6.18,12.28-19.95,20.84-35.96,20.84
			c-21.8,0-39.46-15.82-39.46-35.33V134.8h52.65v-0.01h31.23c10.06,0,18.23,7.31,18.23,16.31
			C298.64,160.11,290.47,167.43,280.42,167.43z"/>
	</g>
	<g>
		<path class="st2" d="M280.41,143.37h-4.97v9.57c0,2.02-0.24,3.98-0.59,5.9h5.56c4.77,0,8.63-3.47,8.63-7.74
			C289.04,146.84,285.17,143.37,280.41,143.37z"/>
	</g>
</g>
<g>
	<path class="st3" d="M214.52,280.82v6.45H207v2.2c1.84-0.12,3.5-0.3,5-0.53c-0.2-0.32-0.4-0.63-0.6-0.94l1.79-0.55
		c0.83,1.12,1.54,2.31,2.13,3.58l-1.79,0.83c-0.21-0.5-0.44-0.98-0.69-1.42c-1.87,0.41-4.83,0.8-8.9,1.15l-0.25-1.97
		c0.43-0.02,0.84-0.03,1.24-0.05v-8.74H214.52z M223.5,270.95l0.89,1.63c-0.79,0.11-1.62,0.21-2.48,0.3l-0.78,2.48h2.64v4.57h-19.09
		v-4.57h2.78l-0.85-1.79h-1.93l-0.55-1.72C211.75,271.84,218.2,271.55,223.5,270.95z M210.32,278.41v-1.54h-3.51v1.54H210.32z
		 M207,283.41h5.46v-1.15H207V283.41z M207,285.84h5.46v-1.08H207V285.84z M209.61,275.36h3.88l-0.6-1.9
		c-1.35,0.05-2.72,0.08-4.13,0.09L209.61,275.36z M215.97,278.41v-1.54h-3.67v1.54H215.97z M215.65,275.36h3.33l0.73-2.27
		c-1.48,0.11-3.04,0.2-4.68,0.28L215.65,275.36z M215.07,282.08h5.83v-1.54h2.04v1.54h1.81v1.79h-1.81v5.83
		c0,0.72-0.18,1.22-0.53,1.49c-0.32,0.32-0.92,0.48-1.79,0.48h-2.52l-0.34-1.97c0.93,0.12,1.71,0.18,2.32,0.18
		c0.55,0,0.83-0.15,0.83-0.46v-5.55h-5.83V282.08z M217.48,284.49c0.8,1.1,1.48,2.27,2.07,3.51l-1.88,0.8
		c-0.63-1.39-1.32-2.62-2.06-3.67L217.48,284.49z M221.61,278.41v-1.54h-3.67v1.54H221.61z"/>
	<path class="st3" d="M226.98,277.42h8.97v-6.47h2.41v6.47h9.16v2.13h-9.16v9.16h8.08v2.07h-18.66v-2.07h8.17v-9.16h-8.97V277.42z"
		/>
	<path class="st3" d="M255.76,272.49v15.86h-3.49v2.07h-1.79v-17.92H255.76z M252.27,286.65h1.7v-12.46h-1.7V286.65z M256.38,274.99
		h1.65c0.03-1.22,0.05-2.54,0.07-3.95h1.97c-0.02,1.41-0.04,2.72-0.07,3.95h3.28c0,7.51-0.07,11.96-0.21,13.36
		c-0.09,1.09-0.28,1.8-0.57,2.13c-0.32,0.43-0.93,0.64-1.81,0.64c-0.49,0-1.05-0.03-1.7-0.09l-0.37-2.23
		c0.67,0.12,1.36,0.18,2.06,0.18c0.35,0,0.55-0.45,0.6-1.35c0.06-1.1,0.1-4.72,0.12-10.85h-1.45c-0.12,2.88-0.33,5.26-0.62,7.16
		c-0.38,2.74-1.25,5.32-2.59,7.73l-1.36-1.7c0.98-1.88,1.64-3.88,2-6.01c0.28-1.71,0.47-4.11,0.6-7.18h-1.61V274.99z M269.92,272.21
		v18.91h-1.97v-1.51h-1.61v1.7h-1.97v-19.09H269.92z M266.34,287.91h1.61V274h-1.61V287.91z"/>
	<path class="st3" d="M279.26,272.3v11.96c1.41-0.29,2.86-0.71,4.36-1.26c0.01-0.35,0.02-0.72,0.02-1.1v-1.08h-3.4v-1.97h3.4v-2.78
		h-3.49v-1.97h3.49v-3.3h2.07v11.11c0,2.2-0.34,4.02-1.03,5.46c-0.66,1.44-1.93,2.91-3.81,4.41l-1.7-1.54
		c1.68-1.12,2.87-2.31,3.56-3.58c0.26-0.43,0.46-0.93,0.6-1.51c-1.01,0.4-2.16,0.75-3.44,1.06l-0.62-1.45V288h-4.04v2.04h-1.97
		V272.3H279.26z M275.22,286.12h2.07v-11.93h-2.07V286.12z M287.49,270.79h2.07v3.3h3.76v1.97h-3.76v3.14h3.4v1.97h-3.4v3.58h4.04
		v1.88h-4.04v5.21h-2.07V270.79z"/>
</g>
</svg>
